<svg height="60" viewBox="11.272 1.898 8.168 4.085" width="120" xmlns="http://www.w3.org/2000/svg" xmlns:xlink="http://www.w3.org/1999/xlink"><defs><path id="a" d="m48.42-17.98c0 9.212-7.553 16.68-16.87 16.68s-16.87-7.47-16.87-16.68 7.553-16.68 16.87-16.68 16.87 7.467 16.87 16.68z"/><path id="b" d="m21.56 2.677a16.832 16.832 0 0 0 -2.687 2.031c2.656.508 5.32 2.862 6.78 4.812 1.272 2.002 1.963 3.837 2.86 5.73a91.424 91.424 0 0 1 1.896-1.587l-.004-8.226c-1.98-1.238-5.25-2.867-8.816-2.76-.008.005-.024-.005-.03 0z"/><path id="c" d="m21.56 2.677a16.945 16.945 0 0 0 -2.688 2.031c2.656.508 5.32 2.862 6.78 4.812 1.272 2.002 1.964 3.837 2.862 5.732l1.896-1.587-.004-8.227c-1.98-1.238-5.25-2.867-8.816-2.76-.007.005-.024-.005-.03 0z"/><radialGradient id="d" cx="-1186.125" cy="1608.61" gradientTransform="matrix(0 1.6935 1.5038 0 -2387.78 1988.934)" gradientUnits="userSpaceOnUse" r="14.351"><stop offset="0" stop-color="#fff"/><stop offset="1" stop-color="#fff" stop-opacity="0"/></radialGradient><linearGradient id="e"><stop offset="0" stop-color="#97ca43"/><stop offset="1" stop-color="#97ca43" stop-opacity="0"/></linearGradient><linearGradient id="f" gradientUnits="userSpaceOnUse" x1="24.16" x2="20.175" xlink:href="#e" y1="21.586" y2="16.88"/><linearGradient id="g" gradientUnits="userSpaceOnUse" x1="24.129" x2="27.78" xlink:href="#e" y1="10.429" y2="2.272"/><linearGradient id="h" gradientUnits="userSpaceOnUse" x1="24.101" x2="28.073" xlink:href="#e" y1="21.5" y2="16.829"/><linearGradient id="i" gradientUnits="userSpaceOnUse" x1="24.104" x2="20.995" xlink:href="#e" y1="9.969" y2="4.892"/></defs><g fill="#177d3e" transform="translate(-.111 .077)"><path d="m18.978 4.537-.443-.602-.443.602h-.183l.533-.727-.487-.66h.182l.397.54.396-.54h.182l-.486.66.533.727zm-2.44-.674a.399.399 0 0 0 -.091-.058c.1-.055.167-.158.167-.278 0-.09-.033-.377-.45-.377h-.564v.598h-.188a4.068 4.068 0 0 0 -.101.139h.29v.65h.563c.305 0 .495-.155.495-.405 0-.11-.04-.202-.12-.27m-.783-.568h.408c.1 0 .295.028.295.22 0 .146-.108.233-.295.233h-.408zm.408 1.098h-.408v-.505h.408c.155 0 .34.043.34.242 0 .23-.213.263-.34.263"/><path d="m17.4 3.118c-.4 0-.662.298-.662.725s.272.725.662.725.66-.298.66-.725-.272-.725-.66-.725m0 1.304c-.297 0-.505-.238-.505-.58s.208-.578.505-.578.503.238.503.578-.207.58-.503.58m-1.867.116-.533-.728.487-.66h-.182l-.397.54-.396-.54h-.182l.486.66-.533.727h.183l.443-.602.443.602z"/></g><g transform="matrix(.066911 0 0 .066911 10.680773 5.143586)"><use fill="#666" xlink:href="#a"/><g fill="url(#d)"><use xlink:href="#a"/><use xlink:href="#a"/><use xlink:href="#a"/></g><path d="m27.27-25.287c-1.863 2.258-9.666 11.435-8.974 17.64.482.61 1.013 1.182 1.574 1.72-.082-4.75 5.492-9.833 9.842-13.67l-2.443-5.69z" fill="#00a54d"/><path d="m25.967 9.583c-1.848 2.256-9.593 11.425-8.906 17.625.478.61 1.005 1.18 1.562 1.718-.08-4.745 5.45-9.825 9.77-13.658z" fill="url(#f)" transform="matrix(1.0075 0 0 1.00084 1.107 -34.878)"/><g transform="matrix(1.0075 0 0 1.00084 .968 -34.846)"><use fill="#02a74d" xlink:href="#b"/><use fill="url(#g)" xlink:href="#b"/></g><path d="m35.837-25.28c1.856 2.26 9.633 11.445 8.943 17.654-.48.61-1.01 1.183-1.568 1.722.08-4.754-5.474-9.842-9.8-13.682l2.435-5.695z" fill="#00a54d"/><path d="m25.967 9.583c-1.847 2.257-9.593 11.427-8.907 17.625a16.95 16.95 0 0 0 1.562 1.719c-.08-4.746 5.45-9.825 9.77-13.66z" fill="url(#h)" transform="matrix(-1.00417 0 0 1.00169 61.912 -34.88)"/><g transform="matrix(-1.00417 0 0 1.00169 62.051 -34.848)"><use fill="#02a74d" xlink:href="#c"/><use fill="url(#i)" xlink:href="#c"/></g></g></svg>